<?xml version="1.0" encoding="utf-8"?>
<!-- Generator: Adobe Illustrator 25.4.1, SVG Export Plug-In . SVG Version: 6.00 Build 0)  -->
<svg version="1.1" id="Layer_1" xmlns="http://www.w3.org/2000/svg" xmlns:xlink="http://www.w3.org/1999/xlink" x="0px" y="0px"
	 viewBox="0 0 256.5 255" style="enable-background:new 0 0 256.5 255;" xml:space="preserve">
<style type="text/css">
	.st0{fill:none;stroke:#000000;stroke-width:3;stroke-miterlimit:10;}
</style>
<rect x="1.5" y="48.5" class="st0" width="205" height="205"/>
<rect x="26" y="24.5" class="st0" width="205" height="205"/>
<rect x="50" y="1.5" class="st0" width="205" height="205"/>
<g>
	<path d="M92.25,134.46c0,1.6-0.29,3.09-0.85,4.48c-0.57,1.39-1.42,2.57-2.54,3.53c-1.19,1.03-2.62,1.82-4.3,2.38
		c-1.68,0.56-3.75,0.84-6.23,0.84c-1.68,0-3.26-0.06-4.74-0.18c-1.48-0.12-2.78-0.3-3.91-0.52v-7.35h0.88
		c0.78,0.29,1.59,0.57,2.44,0.82c0.85,0.25,1.93,0.38,3.25,0.38c1.71,0,3.02-0.23,3.94-0.68c0.92-0.46,1.57-1.09,1.97-1.91
		c0.37-0.8,0.59-1.67,0.63-2.63s0.07-2.17,0.07-3.65v-14.49h-8.33v-6.69h17.7V134.46z"/>
	<path d="M128.7,145.83c-2.7,0-5.2-0.4-7.48-1.2c-2.29-0.8-4.25-1.99-5.9-3.56c-1.64-1.58-2.92-3.55-3.82-5.91
		c-0.9-2.36-1.35-5.09-1.35-8.18c0-2.88,0.43-5.49,1.29-7.84c0.86-2.34,2.12-4.35,3.76-6.03c1.58-1.61,3.54-2.86,5.87-3.74
		c2.34-0.88,4.89-1.32,7.65-1.32c1.53,0,2.91,0.09,4.14,0.26c1.23,0.17,2.36,0.4,3.41,0.67c1.09,0.31,2.08,0.66,2.97,1.04
		c0.89,0.38,1.66,0.74,2.33,1.06v8.81h-1.07c-0.46-0.39-1.03-0.85-1.72-1.38c-0.69-0.53-1.48-1.06-2.36-1.58
		c-0.9-0.52-1.86-0.96-2.91-1.31c-1.04-0.36-2.16-0.53-3.34-0.53c-1.32,0-2.57,0.21-3.76,0.62c-1.19,0.41-2.29,1.1-3.3,2.06
		c-0.96,0.93-1.74,2.15-2.33,3.68c-0.59,1.53-0.89,3.38-0.89,5.56c0,2.27,0.32,4.17,0.96,5.7c0.64,1.53,1.45,2.73,2.43,3.61
		c0.99,0.89,2.1,1.53,3.32,1.91c1.22,0.38,2.42,0.57,3.61,0.57c1.14,0,2.27-0.17,3.38-0.51c1.11-0.34,2.14-0.8,3.09-1.38
		c0.8-0.47,1.54-0.97,2.22-1.51c0.68-0.53,1.25-1,1.68-1.38h0.98v8.69c-0.91,0.41-1.78,0.79-2.61,1.15
		c-0.83,0.36-1.7,0.67-2.61,0.93c-1.19,0.34-2.3,0.6-3.34,0.78C131.95,145.75,130.52,145.83,128.7,145.83z"/>
	<path d="M185.94,145.13h-26.29v-36.35h26.29v7.03h-16.97v6.27h15.75v7.03h-15.75v8.98h16.97V145.13z"/>
</g>
<g>
</g>
<g>
</g>
<g>
</g>
<g>
</g>
<g>
</g>
<g>
</g>
</svg>
